<svg width="1200" height="400" xmlns="http://www.w3.org/2000/svg">
  <defs>
    <linearGradient id="grad1" x1="0%" y1="0%" x2="100%" y2="100%">
      <stop offset="0%" style="stop-color:#6c63ff;stop-opacity:0.9" />
      <stop offset="100%" style="stop-color:#4a6bff;stop-opacity:0.8" />
    </linearGradient>
  </defs>
  <rect width="1200" height="400" fill="url(#grad1)" />
  <g fill="#ffffff" opacity="0.1">
    <circle cx="100" cy="100" r="30" />
    <circle cx="300" cy="150" r="25" />
    <circle cx="500" cy="80" r="20" />
    <circle cx="700" cy="200" r="35" />
    <circle cx="900" cy="120" r="30" />
    <circle cx="1100" cy="180" r="25" />
    <circle cx="200" cy="250" r="20" />
    <circle cx="400" cy="300" r="30" />
    <circle cx="600" cy="350" r="25" />
    <circle cx="800" cy="280" r="20" />
    <circle cx="1000" cy="320" r="35" />
  </g>
  <g fill="none" stroke="#ffffff" stroke-width="1" opacity="0.2">
    <path d="M50,50 C100,20 150,80 200,50 C250,20 300,80 350,50 C400,20 450,80 500,50 C550,20 600,80 650,50 C700,20 750,80 800,50 C850,20 900,80 950,50 C1000,20 1050,80 1100,50 C1150,20 1200,80 1250,50" />
    <path d="M50,150 C100,120 150,180 200,150 C250,120 300,180 350,150 C400,120 450,180 500,150 C550,120 600,180 650,150 C700,120 750,180 800,150 C850,120 900,180 950,150 C1000,120 1050,180 1100,150 C1150,120 1200,180 1250,150" />
    <path d="M50,250 C100,220 150,280 200,250 C250,220 300,280 350,250 C400,220 450,280 500,250 C550,220 600,280 650,250 C700,220 750,280 800,250 C850,220 900,280 950,250 C1000,220 1050,280 1100,250 C1150,220 1200,280 1250,250" />
    <path d="M50,350 C100,320 150,380 200,350 C250,320 300,380 350,350 C400,320 450,380 500,350 C550,320 600,380 650,350 C700,320 750,380 800,350 C850,320 900,380 950,350 C1000,320 1050,380 1100,350 C1150,320 1200,380 1250,350" />
  </g>
</svg>