<svg width="1200" height="600" xmlns="http://www.w3.org/2000/svg">
  <defs>
    <linearGradient id="grad1" x1="0%" y1="0%" x2="100%" y2="100%">
      <stop offset="0%" style="stop-color:#4a6bff;stop-opacity:0.8" />
      <stop offset="100%" style="stop-color:#6c63ff;stop-opacity:0.9" />
    </linearGradient>
  </defs>
  <rect width="1200" height="600" fill="url(#grad1)" />
  <g fill="#ffffff" opacity="0.1">
    <path d="M100,100 L150,150 L100,200 Z" />
    <path d="M300,200 L350,250 L300,300 Z" />
    <path d="M500,100 L550,150 L500,200 Z" />
    <path d="M700,300 L750,350 L700,400 Z" />
    <path d="M900,150 L950,200 L900,250 Z" />
    <path d="M1100,250 L1150,300 L1100,350 Z" />
    <path d="M200,400 L250,450 L200,500 Z" />
    <path d="M400,350 L450,400 L400,450 Z" />
    <path d="M600,450 L650,500 L600,550 Z" />
    <path d="M800,50 L850,100 L800,150 Z" />
    <path d="M1000,400 L1050,450 L1000,500 Z" />
  </g>
  <g fill="none" stroke="#ffffff" stroke-width="1" opacity="0.2">
    <rect x="50" y="50" width="100" height="150" rx="10" />
    <rect x="200" y="100" width="80" height="120" rx="10" />
    <rect x="350" y="50" width="120" height="180" rx="10" />
    <rect x="500" y="150" width="90" height="130" rx="10" />
    <rect x="650" y="80" width="110" height="160" rx="10" />
    <rect x="800" y="120" width="100" height="140" rx="10" />
    <rect x="950" y="60" width="80" height="130" rx="10" />
    <rect x="1050" y="150" width="100" height="150" rx="10" />
    <rect x="100" y="300" width="90" height="140" rx="10" />
    <rect x="250" y="350" width="110" height="160" rx="10" />
    <rect x="400" y="280" width="80" height="120" rx="10" />
    <rect x="550" y="320" width="100" height="150" rx="10" />
    <rect x="700" y="270" width="120" height="170" rx="10" />
    <rect x="850" y="330" width="90" height="130" rx="10" />
    <rect x="1000" y="290" width="100" height="140" rx="10" />
  </g>
</svg>