<svg xmlns="http://www.w3.org/2000/svg" width="200" height="50" viewBox="0 0 200 50">
  <!-- Background Rectangle with Rounded Corners -->
  <rect x="0" y="5" width="190" height="40" rx="8" ry="8" fill="#4a6fdc" />
  
  <!-- Book Icon -->
  <g transform="translate(15, 12) scale(0.025)">
    <path d="M448 360V24c0-13.3-10.7-24-24-24H96C43 0 0 43 0 96v320c0 53 43 96 96 96h328c13.3 0 24-10.7 24-24v-16c0-7.5-3.5-14.3-8.9-18.7-4.2-15.4-4.2-59.3 0-74.7 5.4-4.3 8.9-11.1 8.9-18.6zM128 134c0-3.3 2.7-6 6-6h212c3.3 0 6 2.7 6 6v20c0 3.3-2.7 6-6 6H134c-3.3 0-6-2.7-6-6v-20zm0 64c0-3.3 2.7-6 6-6h212c3.3 0 6 2.7 6 6v20c0 3.3-2.7 6-6 6H134c-3.3 0-6-2.7-6-6v-20zm253.4 250H96c-17.7 0-32-14.3-32-32 0-17.6 14.4-32 32-32h285.4c-1.9 17.1-1.9 46.9 0 64z" fill="white"/>
  </g>
  
  <!-- Text: E-Book -->
  <text x="50" y="32" font-family="Arial, sans-serif" font-size="22" font-weight="bold" fill="white">E-Book</text>
  
  <!-- Text: Store -->
  <text x="130" y="32" font-family="Arial, sans-serif" font-size="22" font-weight="bold" fill="#ffcc00">Store</text>
  
  <!-- Decorative Elements -->
  <circle cx="180" y="15" r="5" fill="#ffcc00" />
  <circle cx="180" y="35" r="5" fill="#ffcc00" />
</svg>