<svg width="1200" height="300" xmlns="http://www.w3.org/2000/svg">
  <defs>
    <linearGradient id="grad1" x1="0%" y1="0%" x2="100%" y2="100%">
      <stop offset="0%" style="stop-color:#4a6bff;stop-opacity:0.8" />
      <stop offset="100%" style="stop-color:#6c63ff;stop-opacity:0.9" />
    </linearGradient>
  </defs>
  <rect width="1200" height="300" fill="url(#grad1)" />
  <g fill="#ffffff" opacity="0.1">
    <path d="M100,50 L130,80 L100,110 Z" />
    <path d="M300,100 L330,130 L300,160 Z" />
    <path d="M500,50 L530,80 L500,110 Z" />
    <path d="M700,150 L730,180 L700,210 Z" />
    <path d="M900,75 L930,105 L900,135 Z" />
    <path d="M1100,125 L1130,155 L1100,185 Z" />
    <path d="M200,200 L230,230 L200,260 Z" />
    <path d="M400,175 L430,205 L400,235 Z" />
    <path d="M600,225 L630,255 L600,285 Z" />
    <path d="M800,25 L830,55 L800,85 Z" />
    <path d="M1000,200 L1030,230 L1000,260 Z" />
  </g>
  <g fill="none" stroke="#ffffff" stroke-width="1" opacity="0.2">
    <rect x="50" y="25" width="50" height="75" rx="5" />
    <rect x="150" y="50" width="40" height="60" rx="5" />
    <rect x="250" y="25" width="60" height="90" rx="5" />
    <rect x="350" y="75" width="45" height="65" rx="5" />
    <rect x="450" y="40" width="55" height="80" rx="5" />
    <rect x="550" y="60" width="50" height="70" rx="5" />
    <rect x="650" y="30" width="40" height="65" rx="5" />
    <rect x="750" y="75" width="50" height="75" rx="5" />
    <rect x="850" y="50" width="45" height="70" rx="5" />
    <rect x="950" y="25" width="55" height="80" rx="5" />
    <rect x="1050" y="60" width="40" height="60" rx="5" />
    <rect x="50" y="150" width="45" height="70" rx="5" />
    <rect x="150" y="175" width="55" height="80" rx="5" />
    <rect x="250" y="140" width="40" height="60" rx="5" />
    <rect x="350" y="160" width="50" height="75" rx="5" />
    <rect x="450" y="135" width="60" height="85" rx="5" />
    <rect x="550" y="165" width="45" height="65" rx="5" />
    <rect x="650" y="145" width="50" height="70" rx="5" />
    <rect x="750" y="170" width="40" height="60" rx="5" />
    <rect x="850" y="130" width="55" height="80" rx="5" />
    <rect x="950" y="155" width="45" height="65" rx="5" />
    <rect x="1050" y="140" width="50" height="70" rx="5" />
  </g>
</svg>